<svg width="640" height="400" viewBox="0 0 640 400" fill="none" xmlns="http://www.w3.org/2000/svg">
  <rect width="640" height="400" rx="28" fill="#EEF7E8"/>
  <rect x="48" y="36" width="544" height="328" rx="20" fill="#7CC36B"/>
  <rect x="72" y="60" width="496" height="280" rx="12" stroke="white" stroke-width="4"/>
  <line x1="320" y1="60" x2="320" y2="340" stroke="white" stroke-width="4"/>
  <circle cx="320" cy="200" r="38" stroke="white" stroke-width="4"/>
  <rect x="72" y="122" width="72" height="156" stroke="white" stroke-width="4"/>
  <rect x="496" y="122" width="72" height="156" stroke="white" stroke-width="4"/>
  <circle cx="176" cy="128" r="12" fill="#0F172A"/>
  <circle cx="232" cy="182" r="12" fill="#0F172A"/>
  <circle cx="196" cy="254" r="12" fill="#0F172A"/>
  <circle cx="446" cy="144" r="12" fill="#991B1B"/>
  <circle cx="404" cy="222" r="12" fill="#991B1B"/>
  <circle cx="456" cy="276" r="12" fill="#991B1B"/>
  <path d="M188 128C224 146 240 160 258 182" stroke="#0F172A" stroke-width="5" stroke-linecap="round" stroke-dasharray="10 10"/>
  <path d="M246 190C280 208 308 218 342 214" stroke="#0F172A" stroke-width="5" stroke-linecap="round"/>
  <path d="M392 220C426 204 446 184 462 148" stroke="#991B1B" stroke-width="5" stroke-linecap="round"/>
  <path d="M204 252C246 240 288 236 334 244" stroke="#0F172A" stroke-width="5" stroke-linecap="round"/>
  <circle cx="322" cy="214" r="7" fill="#FFF7ED" stroke="#EA580C" stroke-width="3"/>
  <rect x="92" y="288" width="164" height="44" rx="12" fill="white" fill-opacity="0.82"/>
  <text x="114" y="316" fill="#0F172A" font-family="Arial, sans-serif" font-size="22" font-weight="700">PDF-Vorschau</text>
</svg>
